<svg width="32" height="32" viewBox="0 0 32 32" fill="none" xmlns="http://www.w3.org/2000/svg">
<g clip-path="url(#clip0_124_157)">
<path d="M25.1693 18.5926L20.2457 16.1308C20.0519 16.0342 19.836 15.9905 19.6199 16.004C19.4038 16.0175 19.1951 16.0877 19.0148 16.2077L16.7546 17.7155C15.717 17.1452 14.8632 16.2913 14.2928 15.2538L15.8007 12.9936C15.9206 12.8133 15.9909 12.6046 16.0044 12.3884C16.0179 12.1723 15.9742 11.9565 15.8776 11.7627L13.4158 6.83912C13.3138 6.63305 13.1561 6.45969 12.9605 6.33868C12.765 6.21766 12.5395 6.15384 12.3096 6.15444C10.6773 6.15444 9.1119 6.80285 7.95771 7.95703C6.80353 9.11121 6.15512 10.6766 6.15512 12.3089C6.15919 15.8986 7.58701 19.3401 10.1253 21.8784C12.6636 24.4167 16.1052 25.8446 19.6949 25.8486C20.5031 25.8486 21.3034 25.6894 22.0501 25.3802C22.7968 25.0709 23.4752 24.6175 24.0467 24.046C24.6182 23.4745 25.0716 22.7961 25.3808 22.0494C25.6901 21.3027 25.8493 20.5024 25.8493 19.6942C25.8495 19.4655 25.7859 19.2413 25.6658 19.0467C25.5457 18.8522 25.3738 18.6949 25.1693 18.5926ZM19.6949 23.3869C16.7578 23.3836 13.942 22.2154 11.8652 20.1386C9.78834 18.0618 8.62015 15.2459 8.6169 12.3089C8.61666 11.4551 8.91225 10.6277 9.45338 9.96733C9.99451 9.30698 10.7477 8.85454 11.5849 8.68699L13.3512 12.2258L11.848 14.4629C11.7356 14.6314 11.6666 14.825 11.647 15.0266C11.6274 15.2282 11.6579 15.4314 11.7357 15.6184C12.6163 17.7115 14.2815 19.3767 16.3746 20.2573C16.5621 20.3386 16.7669 20.3718 16.9705 20.3541C17.1742 20.3364 17.3701 20.2682 17.5408 20.1558L19.7887 18.6572L23.3275 20.4235C23.1587 21.2616 22.7043 22.0152 22.0418 22.5556C21.3793 23.096 20.5498 23.3898 19.6949 23.3869ZM16.0022 3.81076e-07C13.2396 -0.00060246 10.5239 0.71405 8.11939 2.0744C5.71491 3.43475 3.70357 5.39444 2.28117 7.76274C0.858763 10.131 0.0737406 12.8273 0.00251281 15.589C-0.068715 18.3507 0.576278 21.0838 1.87471 23.5223L0.12839 28.7612C-0.0162633 29.195 -0.0372558 29.6604 0.0677651 30.1055C0.172786 30.5505 0.39967 30.9574 0.722987 31.2808C1.0463 31.6041 1.45328 31.831 1.89829 31.936C2.34331 32.041 2.80878 32.02 3.24253 31.8754L8.4815 30.129C10.6275 31.2705 13.0053 31.908 15.4345 31.9932C17.8637 32.0785 20.2804 31.6092 22.5011 30.621C24.7218 29.6328 26.6883 28.1517 28.2511 26.29C29.8139 24.4284 30.9321 22.2352 31.5208 19.8769C32.1095 17.5186 32.1532 15.0571 31.6485 12.6794C31.1439 10.3017 30.1042 8.07021 28.6084 6.15431C27.1126 4.2384 25.1999 2.68844 23.0157 1.62209C20.8314 0.555728 18.4329 0.000997373 16.0022 3.81076e-07ZM16.0022 29.5413C13.622 29.5429 11.2835 28.9161 9.22311 27.7242C9.07226 27.6367 8.90454 27.5823 8.73106 27.5645C8.55759 27.5467 8.38232 27.566 8.21686 27.6211L2.46246 29.5413L4.38111 23.7869C4.43641 23.6215 4.45596 23.4463 4.43845 23.2729C4.42095 23.0994 4.36679 22.9316 4.27956 22.7806C2.78706 20.2003 2.18783 17.1995 2.57482 14.2438C2.96181 11.2881 4.3134 8.54269 6.4199 6.43353C8.5264 4.32436 11.2701 2.96932 14.2253 2.57859C17.1805 2.18787 20.182 2.7833 22.7643 4.27254C25.3466 5.76177 27.3652 8.06155 28.507 10.8151C29.6489 13.5687 29.8501 16.6221 29.0795 19.5017C28.3089 22.3813 26.6096 24.9261 24.2451 26.7414C21.8806 28.5566 18.9831 29.5408 16.0022 29.5413Z" fill="#061C39"/>
</g>
<defs>
<clipPath id="clip0_124_157">
<rect width="32" height="32" fill="white"/>
</clipPath>
</defs>
</svg>
